<svg viewBox="0 0 54 79" fill="none" xmlns="http://www.w3.org/2000/svg">
<g filter="url(#filter0_d_138_13359)">
<path d="M11.2154 30.7239L33.5496 8.1213L23.6516 26.9946L40.0477 29.4483L8.19039 53.7779L26.0331 31.8641L11.2154 30.7239Z" fill="#FFF385"/>
<path d="M11.2154 30.7239L33.5496 8.1213L23.6516 26.9946L40.0477 29.4483L8.19039 53.7779L26.0331 31.8641L11.2154 30.7239Z" stroke="#FFF385" stroke-width="1.36714" stroke-linejoin="round"/>
</g>
<g filter="url(#filter1_d_138_13359)">
<path d="M28.72 59.267L45.8195 54.5865L35.5271 60.5177L41.4754 66.4455L21.9526 70.8561L33.8752 64.4044L28.72 59.267Z" fill="#FFF385"/>
<path d="M28.72 59.267L45.8195 54.5865L35.5271 60.5177L41.4754 66.4455L21.9526 70.8561L33.8752 64.4044L28.72 59.267Z" stroke="#FFF385" stroke-width="1.36714" stroke-linejoin="round"/>
</g>
<defs>
<filter id="filter0_d_138_13359" x="0.672363" y="0.60083" width="46.8933" height="60.6975" filterUnits="userSpaceOnUse" color-interpolation-filters="sRGB">
<feFlood flood-opacity="0" result="BackgroundImageFix"/>
<feColorMatrix in="SourceAlpha" type="matrix" values="0 0 0 0 0 0 0 0 0 0 0 0 0 0 0 0 0 0 127 0" result="hardAlpha"/>
<feOffset/>
<feGaussianBlur stdDeviation="3.41785"/>
<feComposite in2="hardAlpha" operator="out"/>
<feColorMatrix type="matrix" values="0 0 0 0 1 0 0 0 0 0.952941 0 0 0 0 0.521569 0 0 0 0.6 0"/>
<feBlend mode="normal" in2="BackgroundImageFix" result="effect1_dropShadow_138_13359"/>
<feBlend mode="normal" in="SourceGraphic" in2="effect1_dropShadow_138_13359" result="shape"/>
</filter>
<filter id="filter1_d_138_13359" x="14.4363" y="47.0642" width="38.8997" height="31.3142" filterUnits="userSpaceOnUse" color-interpolation-filters="sRGB">
<feFlood flood-opacity="0" result="BackgroundImageFix"/>
<feColorMatrix in="SourceAlpha" type="matrix" values="0 0 0 0 0 0 0 0 0 0 0 0 0 0 0 0 0 0 127 0" result="hardAlpha"/>
<feOffset/>
<feGaussianBlur stdDeviation="3.41785"/>
<feComposite in2="hardAlpha" operator="out"/>
<feColorMatrix type="matrix" values="0 0 0 0 1 0 0 0 0 0.952941 0 0 0 0 0.521569 0 0 0 0.6 0"/>
<feBlend mode="normal" in2="BackgroundImageFix" result="effect1_dropShadow_138_13359"/>
<feBlend mode="normal" in="SourceGraphic" in2="effect1_dropShadow_138_13359" result="shape"/>
</filter>
</defs>
</svg>
