<svg width="193" height="152" viewBox="0 0 193 152" fill="none" xmlns="http://www.w3.org/2000/svg">
<path fill-rule="evenodd" clip-rule="evenodd" d="M23.9162 71.0059C19.0901 56.3703 19.6785 42.0086 26.8292 30.4323C43.6472 3.20567 90.3962 1.69731 131.246 27.0633C172.096 52.4293 191.578 95.064 174.76 122.291C157.942 149.517 111.193 151.026 70.343 125.66C54.2874 115.69 41.5327 103.052 32.9856 89.7313C22.5193 90.3246 13.303 90.6753 8.85767 90.0187C1.41282 88.9189 10.8251 80.6447 23.9162 71.0059Z" fill="#151F3F"/>
<path d="M26.8292 30.4323L25.9784 29.9068L25.9784 29.9068L26.8292 30.4323ZM23.9162 71.0059L24.8659 70.6927L25.093 71.3813L24.5091 71.8112L23.9162 71.0059ZM131.246 27.0633L130.719 27.9128L131.246 27.0633ZM174.76 122.291L175.611 122.816L174.76 122.291ZM70.343 125.66L69.8155 126.509L70.343 125.66ZM32.9856 89.7313L32.929 88.7329L33.5119 88.6998L33.8272 89.1912L32.9856 89.7313ZM27.68 30.9578C20.7236 42.2195 20.1061 56.2582 24.8659 70.6927L22.9665 71.3191C18.0741 56.4824 18.6334 41.7977 25.9784 29.9068L27.68 30.9578ZM130.719 27.9128C110.438 15.3193 88.7303 9.42259 70.0579 10.025C51.3773 10.6278 35.8579 17.7185 27.68 30.9578L25.9784 29.9068C34.6184 15.9194 50.8825 8.6427 69.9935 8.02609C89.1127 7.40921 111.205 13.4413 131.774 26.2138L130.719 27.9128ZM173.909 121.765C182.088 108.525 181.505 91.4332 173.719 74.3949C165.937 57.3645 151 40.5064 130.719 27.9128L131.774 26.2138C152.343 38.9862 167.571 56.1284 175.538 73.5636C183.501 90.9908 184.25 108.83 175.611 122.816L173.909 121.765ZM70.8706 124.81C91.1515 137.404 112.859 143.3 131.531 142.698C150.212 142.095 165.731 135.004 173.909 121.765L175.611 122.816C166.971 136.804 150.707 144.08 131.596 144.697C112.477 145.314 90.3845 139.282 69.8155 126.509L70.8706 124.81ZM33.8272 89.1912C42.288 102.378 54.9316 114.913 70.8706 124.81L69.8155 126.509C53.6432 116.467 40.7775 103.727 32.1439 90.2713L33.8272 89.1912ZM9.0038 89.0294C13.3238 89.6675 22.4176 89.3288 32.929 88.7329L33.0422 90.7297C22.6209 91.3205 13.2822 91.6831 8.71154 91.0079L9.0038 89.0294ZM24.5091 71.8112C17.9548 76.637 12.4107 81.0589 9.43043 84.3821C8.69031 85.2074 8.13237 85.9389 7.75991 86.5696C7.37952 87.2137 7.23932 87.6748 7.22814 87.9764C7.21928 88.216 7.2851 88.3618 7.46229 88.5063C7.69133 88.6931 8.15331 88.9038 9.0038 89.0294L8.71154 91.0079C7.70082 90.8586 6.82836 90.5701 6.19827 90.0563C5.51636 89.5001 5.19836 88.7438 5.22952 87.9024C5.25836 87.1231 5.58201 86.3244 6.03781 85.5526C6.50154 84.7674 7.15217 83.9269 7.94147 83.0468C11.0789 79.5483 16.7864 75.0136 23.3233 70.2006L24.5091 71.8112Z" fill="url(#paint0_linear_99_9025)"/>
<path d="M96.2436 85.3781C102.145 79.9988 114.665 95.1058 122.972 85.315C128.872 78.3607 124.439 70.5084 114.1 61.7356C103.897 53.0794 94.3752 49.0924 85.7577 59.2492L93.993 66.2364C97.8747 61.6612 102.016 63.365 108.696 69.0323C114.598 74.0398 115.784 77.0925 113.96 79.2429C108.991 85.0991 97.3481 68.2174 88.4201 78.7403L96.2436 85.3781ZM85.1982 82.5377L79.9967 88.6684L87.8202 95.3062L93.0218 89.1755L85.1982 82.5377Z" fill="white"/>
<defs>
<linearGradient id="paint0_linear_99_9025" x1="185.082" y1="32.9678" x2="-6.77687" y2="52.3167" gradientUnits="userSpaceOnUse">
<stop stop-color="#313A65"/>
<stop offset="1" stop-color="#313A65" stop-opacity="0"/>
</linearGradient>
</defs>
</svg>
