<svg width="561" height="243" viewBox="0 0 561 243" fill="none" xmlns="http://www.w3.org/2000/svg">
<g filter="url(#filter0_d_99_9009)">
<path fill-rule="evenodd" clip-rule="evenodd" d="M85.9684 34.3913C41.8365 34.7964 7.22775 72.4056 10.485 116.419C13.3065 154.546 43.6507 184.058 80.6273 186.945C79.0038 196.02 75.703 206.726 72.8576 215.956C71.1508 221.492 69.6077 226.497 68.6889 230.299C66.8586 237.873 77.8093 228.357 93.2745 214.918C104.681 205.006 118.543 192.959 131.545 184.062L491.378 157.433C526.741 154.815 553.095 123.721 549.879 88.4072C546.884 55.5094 519.146 30.415 486.113 30.7182L85.9684 34.3913Z" fill="#9DA4FF"/>
</g>
<path d="M44.5946 124.951C47.0633 125.367 50.0039 126.316 51.5447 127.307L52.8157 125.069C51.235 124.08 48.2192 123.215 45.8375 122.914L44.5946 124.951ZM55.6232 120.337C54.0825 119.345 51.1747 118.274 48.8635 117.808L47.5361 119.769C49.852 120.315 52.7668 121.506 54.23 122.542L55.6232 120.337ZM53.0339 127.42C51.0181 130.624 48.6195 134.131 46.8599 136.237L49.124 137.948C51.0551 135.35 53.2235 132.017 54.9762 129.109L53.0339 127.42ZM68.9669 122.398L75.5157 122.014C74.9799 123.808 74.2821 125.572 73.7135 126.808L76.1868 127.304C77.1548 125.363 78.2192 122.336 79.1074 119.719L77.0804 119.317L76.6082 119.465L62.4326 120.297C62.8509 119.231 63.2268 118.127 63.5229 117.028L61.0543 116.612L79.5824 115.524L79.4441 113.168L63.6313 114.097L63.4743 111.421L75.9329 110.69L75.804 108.494L63.3454 109.225L63.1954 106.669L77.6106 105.823L77.4746 103.507L69.4485 103.978C70.1932 103.013 70.9684 101.886 71.6639 100.763L68.4601 100.11C67.9667 101.26 67.0621 102.916 66.254 104.166L57.0298 104.707C56.4404 103.54 55.2333 102.088 54.0472 100.996L51.5455 102.064C52.3558 102.898 53.1778 103.932 53.8353 104.895L45.8491 105.364L45.985 107.68L60.2005 106.845L60.3505 109.401L48.1316 110.118L48.2605 112.314L60.4795 111.597L60.6365 114.272L45.0633 115.186L45.2016 117.542L60.655 116.635C59.6703 120.339 57.7978 123.935 55.3782 126.401C56.0405 126.763 57.3252 127.489 57.8725 127.938C59.1129 126.543 60.2922 124.791 61.2602 122.851L65.8922 122.579L65.9954 124.336C66.1032 126.172 65.0525 132.164 54.8556 135.247C55.4099 135.816 56.2718 136.847 56.6264 137.427C64.5307 134.88 67.256 130.112 67.7543 127.678C68.616 130.072 71.8804 134.488 80.0261 136.054C80.3104 135.436 81.041 134.231 81.5227 133.562C70.9177 131.74 69.1732 125.912 69.0677 124.115L68.9669 122.398ZM106.84 104.789L109.755 104.618L109.64 102.661L119.144 102.103L119.003 99.7073L109.5 100.265L109.354 97.7894L106.439 97.9605L106.585 100.436L102.232 100.692L102.373 103.088L106.725 102.832L106.84 104.789ZM93.6229 105.565L96.5379 105.393L96.4231 103.437L101.095 103.163L100.954 100.767L96.2824 101.041L96.1371 98.5652L93.2221 98.7363L93.3675 101.212L84.1034 101.756L84.244 104.152L93.5081 103.608L93.6229 105.565ZM94.3086 125.438C93.4651 128.133 91.8252 130.913 89.1989 132.59L91.3738 134.145C94.2232 132.175 95.7269 129.122 96.6386 126.223L94.3086 125.438ZM99.581 131.981C99.6045 132.38 99.4917 132.507 99.0149 132.575C98.6156 132.598 97.0982 132.687 95.4587 132.744C95.8602 133.441 96.3158 134.376 96.4778 135.088C98.7539 134.954 100.231 134.868 101.166 134.412C102.139 133.914 102.381 133.259 102.301 131.901L101.741 122.358L99.0256 122.517L99.581 131.981ZM102.811 126.262C104.171 128.265 105.536 131.03 105.998 132.766L108.263 131.752C107.762 130.058 106.325 127.418 104.966 125.414L102.811 126.262ZM107.709 125.053C110.363 127.261 113.393 130.409 114.759 132.532L117.076 131.034C115.629 128.915 112.566 125.889 109.917 123.761L107.709 125.053ZM92.2456 112.818L112.091 111.653L112.244 114.248L92.3979 115.413L92.2456 112.818ZM91.9854 108.385L111.831 107.22L111.979 109.736L92.1331 110.901L91.9854 108.385ZM120.415 120.34L120.274 117.944L98.7512 119.207C99.1881 118.461 99.5476 117.758 99.8625 116.979L115.196 116.078L114.547 105.018L89.1106 106.511L89.7599 117.571L96.628 117.168C96.2709 117.911 95.8739 118.655 95.3969 119.404L84.8551 120.023L84.9957 122.419L93.3813 121.927C91.3046 124.092 88.4176 126.105 84.6638 127.687C85.3285 128.089 86.2233 128.998 86.6625 129.654C91.3441 127.496 94.748 124.732 97.0949 121.709L107.677 121.088C110.657 124.078 115.3 126.731 119.455 127.889C119.815 127.187 120.597 126.179 121.123 125.587C117.591 124.793 113.72 123.017 110.991 120.893L120.415 120.34ZM128.225 101.169L138.367 100.574L138.817 108.241L128.675 108.836L128.225 101.169ZM133.193 115.503C133.269 114.056 133.304 112.611 133.302 111.209L141.767 110.712L141.006 97.7346L125.313 98.6558L126.074 111.633L130.427 111.378C130.452 118.629 129.972 126.831 124.794 131.463C125.539 131.86 126.513 132.764 126.95 133.379C130.939 129.659 132.492 124.039 133.031 118.197L139.58 117.813C139.682 125.7 139.461 128.758 138.789 129.599C138.451 129.98 138.136 130.078 137.457 130.118C136.738 130.16 134.861 130.271 132.893 130.186C133.412 130.836 133.757 131.938 133.884 132.732C135.805 132.699 137.764 132.625 138.756 132.446C139.949 132.296 140.614 132.017 141.246 131.178C142.251 129.877 142.437 126.22 142.333 116.249C142.312 115.889 142.298 114.969 142.298 114.969L133.193 115.503ZM148.127 100.282L145.252 100.45L146.541 122.413L149.416 122.244L148.127 100.282ZM154.721 95.8878L156.584 127.633C156.629 128.392 156.323 128.65 155.605 128.692C154.848 128.777 152.335 128.964 149.533 129.009C150.061 129.819 150.58 131.151 150.787 131.94C154.42 131.727 156.654 131.556 157.944 130.999C159.151 130.408 159.656 129.456 159.539 127.46L157.676 95.7144L154.721 95.8878ZM179.521 93.791C179.757 99.8676 181.136 119.26 165.057 128.618C166.012 129.203 167.022 130.026 167.588 130.794C177.027 125.031 180.735 115.838 182.103 107.744C184.455 115.058 189.307 124.671 199.564 128.757C199.954 127.892 200.774 126.842 201.573 126.114C187.109 120.673 183.733 104.122 182.855 99.4053C182.917 97.0376 182.839 95.0387 182.795 93.5988L179.521 93.791ZM216.871 108.908L208.485 109.401L207.995 101.055L216.381 100.563L216.871 108.908ZM209.202 121.62L208.64 112.036L217.025 111.544L217.588 121.127L209.202 121.62ZM210.813 91.7139C210.643 93.6071 210.082 96.3247 209.595 98.2765L205.123 98.539L206.829 127.609L209.544 127.45L209.359 124.295L220.46 123.643L218.939 97.7281L212.31 98.1171C212.889 96.3602 213.478 94.1218 214.042 92.1254L210.813 91.7139ZM238.458 96.4621L226.519 97.1629C227.088 95.2463 227.534 93.2968 227.899 91.312L225.024 90.7996C224.067 96.3452 222.234 101.982 219.765 105.653C220.427 106.015 221.752 106.739 222.299 107.187C223.587 105.229 224.681 102.72 225.642 99.9791L235.785 99.3838C236.199 115.307 235.956 121.412 234.72 122.887C234.352 123.429 233.917 123.535 233.118 123.582C232.2 123.636 229.804 123.776 227.194 123.689C227.803 124.495 228.232 125.672 228.364 126.545C230.607 126.534 232.888 126.48 234.276 126.238C235.627 126.039 236.524 125.626 237.337 124.456C238.819 122.406 238.977 116.226 238.548 97.9795L238.458 96.4621ZM233.204 114.802C231.788 112.521 228.808 108.849 226.405 106.145L224.169 107.639C226.534 110.385 229.441 114.181 230.78 116.507L233.204 114.802ZM249.345 116.739L256.693 116.308L256.554 113.952L249.207 114.383L249.345 116.739ZM253.056 98.7306L250.74 98.8666L250.44 93.7554L252.756 93.6194L253.056 98.7306ZM257.795 107.789C257.718 107.833 257.558 107.843 257.199 107.864L255.721 107.95C255.242 107.978 255.2 107.941 255.169 107.422L254.804 101.192L257.399 101.04L257.795 107.789ZM247.942 120.828L247.38 111.245C247.796 111.501 248.261 111.914 248.517 112.18C250.864 109.838 251.247 106.811 251.106 104.415L250.93 101.42L253.127 101.291L253.495 107.56C253.605 109.437 254.107 109.808 255.665 109.717L257.621 109.602L257.901 109.585L258.524 120.207L247.942 120.828ZM249.293 101.516L249.469 104.511C249.584 106.467 249.365 108.884 247.361 110.925L246.817 101.661L249.293 101.516ZM243.333 94.1726L248.324 93.8796L248.624 98.9908L244.351 99.2416L245.936 126.235L248.252 126.099L248.085 123.264L258.667 122.643L258.801 124.919L261.157 124.781L259.605 98.3463L255.213 98.6041L254.913 93.4929L259.744 93.2093L259.594 90.6537L243.183 91.617L243.333 94.1726ZM276.684 112.169L277.135 119.836L266.513 120.46L266.063 112.793L276.684 112.169ZM264.025 125.173L266.78 125.012L266.672 123.175L277.294 122.551L277.397 124.308L280.272 124.14L279.4 109.285L263.148 110.239L264.025 125.173ZM272.732 103.546L272.364 97.2768L279.073 96.883L278.916 94.2076L272.207 94.6014L271.835 88.2523L269.04 88.4164L269.412 94.7655L265.778 94.9787C266.051 93.4802 266.282 91.9441 266.47 90.3703L263.689 90.0928C263.326 94.161 262.414 98.4218 260.939 101.273C261.634 101.513 262.91 102.079 263.492 102.446C264.096 101.128 264.681 99.4908 265.137 97.701L269.569 97.4409L269.937 103.71L261.432 104.209L261.589 106.885L280.516 105.774L280.359 103.098L272.732 103.546ZM289.277 114.395L296.624 113.964L296.486 111.608L289.138 112.039L289.277 114.395ZM292.988 96.3868L290.672 96.5228L290.372 91.4116L292.688 91.2756L292.988 96.3868ZM297.727 105.445C297.649 105.489 297.489 105.499 297.13 105.52L295.653 105.607C295.173 105.635 295.131 105.597 295.101 105.078L294.735 98.8487L297.331 98.6963L297.727 105.445ZM287.874 118.484L287.311 108.901C287.727 109.157 288.192 109.57 288.448 109.836C290.795 107.494 291.178 104.467 291.037 102.071L290.862 99.076L293.058 98.9471L293.426 105.216C293.536 107.093 294.039 107.464 295.596 107.373L297.553 107.258L297.832 107.242L298.456 117.863L287.874 118.484ZM289.224 99.1721L289.4 102.167C289.515 104.124 289.296 106.541 287.292 108.581L286.749 99.3174L289.224 99.1721ZM283.264 91.8288L288.255 91.5358L288.555 96.647L284.283 96.8978L285.867 123.891L288.183 123.755L288.017 120.92L298.599 120.299L298.732 122.575L301.088 122.437L299.536 96.0024L295.144 96.2603L294.844 91.1491L299.676 90.8654L299.526 88.3098L283.114 89.2732L283.264 91.8288ZM316.616 109.825L317.066 117.492L306.444 118.116L305.994 110.449L316.616 109.825ZM303.956 122.83L306.711 122.668L306.603 120.831L317.225 120.208L317.328 121.965L320.203 121.796L319.331 106.941L303.079 107.895L303.956 122.83ZM312.664 101.202L312.296 94.933L319.004 94.5392L318.847 91.8638L312.139 92.2576L311.766 85.9085L308.971 86.0726L309.343 92.4216L305.71 92.6349C305.982 91.1364 306.213 89.6002 306.401 88.0265L303.62 87.749C303.258 91.8172 302.346 96.078 300.87 98.9293C301.565 99.169 302.841 99.7352 303.423 100.102C304.027 98.7841 304.612 97.147 305.068 95.3572L309.501 95.097L309.868 101.366L301.363 101.865L301.52 104.541L320.448 103.43L320.291 100.754L312.664 101.202ZM326.002 110.677C325.79 113.895 325.397 117.444 324.664 119.971C325.233 120.098 326.412 120.39 326.907 120.641C327.56 118.118 328.104 114.4 328.299 110.903L326.002 110.677ZM330.129 110.675C330.727 113.365 331.371 116.813 331.589 119.164L333.792 118.474C333.536 116.165 332.895 112.757 332.182 110.154L330.129 110.675ZM334.397 109.663C335.418 112.047 336.564 115.186 337.088 117.279L339.12 116.398C338.601 114.385 337.377 111.291 336.314 108.87L334.397 109.663ZM333.501 100.54C334.008 101.672 334.602 102.92 335.116 104.172L328.304 105.533C331.236 101.555 334.032 96.6222 336.271 91.7627L333.873 90.501C333.145 92.427 332.179 94.407 331.282 96.1826L327.112 96.828C329.13 93.6643 331.057 89.6245 332.514 85.7725L329.935 84.842C328.631 89.246 326.182 93.9576 325.414 95.2047C324.686 96.4496 324.056 97.328 323.427 97.5252C323.746 98.1876 324.223 99.4819 324.415 100.032C324.918 99.7216 325.745 99.4727 329.87 98.7498C328.601 101.028 327.464 102.818 326.869 103.614C325.8 105.199 324.981 106.249 324.191 106.456C324.553 107.156 325.067 108.408 325.182 109.002C325.917 108.558 327.099 108.208 335.922 106.288C336.121 106.958 336.361 107.625 336.513 108.177L338.698 107.167C338.106 105.278 336.761 102.152 335.575 99.6971L333.501 100.54ZM348.462 110.36C347.623 110.41 347.485 110.097 347.424 109.059L347.194 105.146L355.42 104.663L355.282 102.307L349.372 102.654L350.772 101.93C350.361 101.073 349.551 99.5579 348.804 98.4398L355.512 98.046L355.374 95.6901L351.98 95.8893C352.518 94.1347 353.103 91.8165 353.587 89.8247L351.394 89.3123C351.147 91.2501 350.512 94.0922 349.904 96.0112L342.317 96.4565L342.455 98.8124L348.564 98.4538L346.77 99.2804C347.39 100.286 348.111 101.646 348.533 102.703L343.103 103.022L343.241 105.378L344.718 105.291L344.946 109.164C345.1 111.8 345.756 112.723 348.391 112.568L353.502 112.268C354.501 112.21 355.536 112.109 356.046 111.919C355.931 111.324 355.797 110.411 355.678 109.736C355.088 109.931 353.972 110.037 353.333 110.074L348.462 110.36ZM343.32 90.3472C344.382 92.0479 345.361 94.3945 345.732 95.9355L347.609 95.1441C347.278 93.6009 346.221 91.2988 345.12 89.6005L343.32 90.3472ZM358.316 85.0594L337.991 86.2524L340.023 120.873L342.699 120.716L340.821 88.7308L355.756 87.8542L357.434 116.445C357.467 117.004 357.316 117.173 356.799 117.244C356.32 117.272 354.725 117.405 353.044 117.424C353.405 118.124 353.835 119.301 353.957 120.015C356.393 119.872 358.028 119.736 358.958 119.2C359.968 118.66 360.245 117.923 360.149 116.286L358.316 85.0594ZM391.993 95.6242L371.948 96.8008L371.734 93.1671L391.78 91.9905L391.993 95.6242ZM392.34 101.534L372.295 102.711L372.079 99.037L392.124 97.8604L392.34 101.534ZM392.689 107.484L372.644 108.66L372.428 104.987L392.474 103.81L392.689 107.484ZM368.561 90.9893L369.75 111.234L395.984 109.695L394.796 89.4494L381.818 90.2111C382.152 89.0696 382.476 87.7684 382.763 86.5094L397.618 85.6375L397.458 82.9222L364.355 84.8652L364.515 87.5805L379.369 86.7086C379.24 87.9183 378.998 89.2548 378.744 90.3916L368.561 90.9893ZM377.003 111.249C374.356 113.248 369.047 115.643 364.84 117.012C365.556 117.611 366.495 118.598 367.012 119.209C371.214 117.76 376.441 115.329 379.793 113.049L377.003 111.249ZM385.595 112.909C390.361 114.232 395.194 116.032 398.121 117.423L400.757 115.224C397.551 113.85 392.36 112.111 387.596 110.828L385.595 112.909ZM407.497 101.726L407.326 98.8112L412.358 98.5159L412.529 101.431L407.497 101.726ZM407.043 93.9796L412.074 93.6842L412.243 96.5593L407.211 96.8546L407.043 93.9796ZM419.98 93.2202L420.149 96.0952L414.918 96.4023L414.749 93.5272L419.98 93.2202ZM420.435 100.967L415.204 101.274L415.033 98.3589L420.264 98.0518L420.435 100.967ZM430.224 88.2113C430.14 85.4114 429.967 82.4565 429.791 79.4617L426.996 79.6257C427.174 82.6605 427.345 85.5755 427.429 88.3754L422.677 88.6543L422.842 91.4495L427.513 91.1752C427.595 98.7034 426.934 105.193 423.736 110.109L423.725 109.909C421.068 110.386 418.369 110.825 415.788 111.217L415.603 108.062L423.429 107.603L423.295 105.327L415.469 105.786L415.326 103.35L423.073 102.896L422.377 91.036L414.63 91.4907L414.482 88.975L422.948 88.4781L422.812 86.1621L414.346 86.659L414.175 83.744C417.071 83.2535 419.766 82.7347 421.894 82.129L420.283 79.9396C416.224 81.0995 409.078 82.2401 403.187 82.9064C403.542 83.4867 403.878 84.4286 404.035 85.0605C406.386 84.8423 408.972 84.5303 411.516 84.1806L411.671 86.8161L403.046 87.3223L403.182 89.6383L411.807 89.1321L411.954 91.6477L404.487 92.086L405.183 103.946L412.651 103.507L412.794 105.943L405.247 106.386L405.38 108.662L412.927 108.219L413.129 111.653C409.873 112.165 406.895 112.62 404.51 112.961L405.102 115.53C409.546 114.789 415.696 113.746 421.723 112.671C421.192 113.183 420.661 113.695 420.048 114.172C420.795 114.609 421.892 115.547 422.369 116.16C429.087 110.476 430.413 101.663 430.269 91.0135L435.979 90.6783C436.43 105.197 436.261 110.496 435.41 111.708C435.041 112.25 434.689 112.391 434.01 112.431C433.251 112.476 431.492 112.539 429.566 112.492C430.05 113.225 430.442 114.444 430.569 115.238C432.413 115.25 434.292 115.179 435.4 114.954C436.591 114.764 437.371 114.398 437.989 113.319C439.248 111.563 439.282 105.991 438.739 89.2341C438.716 88.8348 438.69 87.7144 438.69 87.7144L430.224 88.2113ZM445.012 113.508L480.631 111.418L480.507 109.301L444.888 111.392L445.012 113.508ZM472.726 102.345L463.462 102.889L463.342 100.852L472.606 100.309L472.726 102.345ZM472.948 106.139L463.684 106.682L463.56 104.566L472.824 104.022L472.948 106.139ZM451.94 105.248L460.805 104.728L460.929 106.844L452.064 107.364L451.94 105.248ZM451.722 101.535L460.587 101.014L460.706 103.051L451.842 103.571L451.722 101.535ZM448.786 99.9839L449.33 109.248L476.044 107.68L475.5 98.4159L448.786 99.9839ZM462.508 85.2746L471.652 84.7378L471.781 86.9341L462.637 87.4708L462.508 85.2746ZM462.278 81.3613L471.422 80.8246L471.542 82.8611L462.398 83.3978L462.278 81.3613ZM463.096 95.2973L462.974 93.2209L476.631 92.4193L476.521 90.5425L462.864 91.3441L462.745 89.3076L474.844 88.5975L474.607 84.5644L478.92 84.3113L478.809 82.4345L474.497 82.6876L474.27 78.8143L462.17 79.5245L462.025 77.0487L459.07 77.2222L459.215 79.6979L447.356 80.394L447.464 82.2309L459.323 81.5348L459.443 83.5713L443.39 84.5135L443.501 86.3902L459.553 85.448L459.682 87.6442L447.583 88.3544L447.691 90.1913L459.79 89.4811L459.909 91.5176L446.852 92.284L446.962 94.1608L460.019 93.3943L460.141 95.4708L444.009 96.4177L444.131 98.4941L479.75 96.4034L479.628 94.327L463.096 95.2973ZM499.837 98.6703L503.111 98.4781C501.682 92.5517 511.152 90.7536 510.799 84.724C510.529 80.1319 506.766 77.4678 501.136 77.7983C496.784 78.0538 493.777 80.0734 491.305 83.0233L493.579 84.8933C495.672 82.3262 498.197 80.9759 500.913 80.8166C504.986 80.5775 507.099 82.4569 507.261 85.2121C507.528 89.7643 498.21 92.1143 499.837 98.6703ZM498.713 105.468C498.826 107.384 500.376 108.536 502.133 108.433C503.89 108.329 505.255 107.007 505.142 105.09C505.03 103.174 503.522 102.06 501.765 102.163C500.008 102.266 498.601 103.551 498.713 105.468Z" fill="#06102B"/>
<defs>
<filter id="filter0_d_99_9009" x="0.272461" y="20.7156" width="559.872" height="222.267" filterUnits="userSpaceOnUse" color-interpolation-filters="sRGB">
<feFlood flood-opacity="0" result="BackgroundImageFix"/>
<feColorMatrix in="SourceAlpha" type="matrix" values="0 0 0 0 0 0 0 0 0 0 0 0 0 0 0 0 0 0 127 0" result="hardAlpha"/>
<feOffset/>
<feGaussianBlur stdDeviation="5"/>
<feComposite in2="hardAlpha" operator="out"/>
<feColorMatrix type="matrix" values="0 0 0 0 0.615686 0 0 0 0 0.643137 0 0 0 0 1 0 0 0 0.6 0"/>
<feBlend mode="normal" in2="BackgroundImageFix" result="effect1_dropShadow_99_9009"/>
<feBlend mode="normal" in="SourceGraphic" in2="effect1_dropShadow_99_9009" result="shape"/>
</filter>
</defs>
</svg>
