<svg width="531" height="284" viewBox="0 0 531 284" fill="none" xmlns="http://www.w3.org/2000/svg">
<g filter="url(#filter0_d_99_9019)">
<path fill-rule="evenodd" clip-rule="evenodd" d="M415.578 15.5967C458.229 4.8063 501.092 32.4149 508.907 75.7103C515.679 113.231 493.626 149.284 458.545 161.112C462.378 169.445 468.225 178.923 473.268 187.096C476.3 192.01 479.041 196.453 480.878 199.891C484.536 206.739 471.562 200.293 453.239 191.189C439.724 184.475 423.3 176.315 408.494 170.977L90.1427 228.437C55.3332 234.719 22.1242 211.274 16.3931 176.369C11.0633 143.91 31.469 112.773 63.3586 104.705L415.578 15.5967Z" fill="#55FFAD"/>
</g>
<path d="M84.7079 164.853C83.0597 163.969 79.9457 163.145 77.4761 162.785L76.3395 165.274C78.8757 165.742 82.0266 166.721 83.6359 167.614L84.7079 164.853ZM85.0228 186.648C85.8477 182.67 86.6684 177.46 87.1491 173.071L84.493 172.098C83.9304 176.835 82.8926 182.343 82.046 185.709L85.0228 186.648ZM75.5501 154.485C77.988 155.058 81.098 156.212 82.6479 157.201L83.8162 154.499C82.1884 153.528 79.1543 152.521 76.7348 152.026L75.5501 154.485ZM92.831 154.377L101.199 152.394L101.974 155.663L93.6058 157.646L92.831 154.377ZM105.406 157.481L104.04 151.72L110.268 150.244L109.659 147.675L103.432 149.151L102.555 145.454L99.7139 146.127L100.59 149.825L92.2221 151.808L91.3458 148.111L88.5823 148.765L89.4587 152.463L83.6593 153.838L84.2682 156.406L90.0675 155.032L91.4328 160.792L96.9597 159.482L97.6146 162.246L87.1836 164.718L92.082 185.386L94.6119 184.786L90.3039 166.609L98.205 164.737L100.936 176.258C98.895 174.933 97.1583 171.768 96.0063 167.601L92.3088 168.477L92.7792 170.462L94.9978 169.937C95.1566 170.433 95.3155 170.93 95.504 171.379L94.8423 171.536C95.1326 173.974 94.8166 176.804 93.2989 178.725C93.7434 178.867 94.5045 179.303 94.8692 179.628C96.0531 178.031 96.5721 176.059 96.6947 173.974C97.6711 175.839 98.8667 177.241 100.176 178.082C100.317 177.637 100.712 177.05 101.028 176.647L102.43 182.563L105.038 181.945L100.813 164.119L109.103 162.154L111.834 173.675C109.578 172.483 107.656 169.403 106.437 165.129L102.74 166.005L103.21 167.99L105.429 167.464C105.588 167.961 105.776 168.41 105.926 168.868L105.303 169.015C105.575 171.376 105.231 174.089 103.656 175.942C104.149 176.113 104.91 176.549 105.236 176.883C106.429 175.326 106.996 173.382 107.137 171.376C108.2 173.261 109.465 174.606 110.852 175.428C111.023 174.936 111.525 174.282 111.88 173.869L112.756 177.567C112.867 178.034 112.73 178.149 112.263 178.259C111.805 178.409 110.287 178.769 108.643 179.117C109.111 179.705 109.635 180.527 109.908 181.161C112.282 180.598 113.83 180.19 114.681 179.618C115.523 179.008 115.639 178.281 115.325 176.958L111.082 159.054L100.222 161.628L99.5674 158.864L105.406 157.481ZM121.225 146.003L141.854 141.114L143.662 148.742L123.033 153.632L121.225 146.003ZM137.383 162.316L150.422 159.226L149.785 156.54L136.746 159.631L135.326 153.637L147.314 150.795L144.186 137.601L117.72 143.874L120.847 157.068L132.407 154.329L136.143 170.092C132.617 169.612 129.611 167.858 127.086 164.14C127.127 162.404 127.051 160.695 126.906 159.044L123.748 159.423C124.522 165.118 124.204 172.099 120.451 176.73C121.127 176.981 122.33 177.723 122.936 178.196C125.192 175.401 126.352 171.796 126.815 168.027C132.109 173.884 138.414 173.952 146.666 171.996L155.228 169.967C155.19 169.113 155.353 167.718 155.615 166.916C153.99 167.342 147.373 168.91 146.166 169.196C143.714 169.777 141.42 170.157 139.256 170.217L137.383 162.316ZM186.952 131.412L186.269 128.531L153.03 136.409L153.713 139.29L170.916 135.212C168.64 142.781 163.516 150.819 156.762 156.49C157.502 157.013 158.704 157.921 159.307 158.559C164.044 154.435 167.842 149.301 170.713 143.893L175.842 165.534L178.916 164.805L172.865 139.272C173.497 137.601 174.099 135.979 174.614 134.336L186.952 131.412ZM174.612 143.174C179.924 145.122 186.773 148.349 190.238 150.652L192.008 147.89C188.466 145.605 181.517 142.648 176.31 140.799L174.612 143.174ZM221.512 120.261L220.857 120.621L193.067 127.208L193.741 130.049L218.767 124.118C216.503 127.573 213.058 131.596 209.755 134.311L214.082 152.565C214.248 153.266 214.06 153.516 213.252 153.748C212.366 153.999 209.378 154.749 206.12 155.397C206.772 156.065 207.621 157.22 207.97 158.001C211.902 157.069 214.461 156.421 215.83 155.604C217.246 154.816 217.549 153.84 217.079 151.855L213.093 135.04C217.302 131.289 221.636 125.986 224.166 121.399L221.512 120.261ZM256.171 127.914L257.915 135.27L247.717 137.687L245.974 130.331L256.171 127.914ZM261.229 137.115L258.314 124.816L242.707 128.515L246.286 143.617L248.972 142.98L248.307 140.178L261.229 137.115ZM258.818 117.749L239.202 122.399L239.801 124.928L259.418 120.279L258.818 117.749ZM263.315 109.49L231.399 117.054L239.369 150.682L242.171 150.018L234.856 119.153L261.128 112.926L267.558 140.055C267.706 140.678 267.527 140.967 266.836 141.172C266.184 141.367 263.926 141.902 261.456 142.406C262.107 143.073 262.869 144.208 263.18 144.998C266.527 144.205 268.455 143.665 269.551 142.912C270.598 142.13 270.824 141.172 270.399 139.382L263.315 109.49ZM302.928 126.944L293.587 129.158L292.895 126.239L302.236 124.025L302.928 126.944ZM291.705 121.218L301.046 119.004L301.692 121.729L292.351 123.943L291.705 121.218ZM278.824 116.995L278.159 114.193L286.528 112.21L287.192 115.012L278.824 116.995ZM298.126 109.46L298.79 112.263L290.072 114.329L289.408 111.527L298.126 109.46ZM308.581 120.096L304.572 121.046L303.419 116.181L291.197 119.078L290.552 116.353L302.15 113.604L300.527 106.754L288.928 109.503L288.393 107.245L303.884 103.574L303.321 101.2L287.83 104.871L287.092 101.758L284.212 102.44L284.95 105.554L269.771 109.152L270.333 111.526L285.513 107.928L286.048 110.186L274.916 112.824L276.54 119.674L287.672 117.036L288.317 119.76L276.096 122.657L276.603 124.798L288.825 121.901L289.47 124.626L273.551 128.399L274.096 130.695L290.015 126.922L290.706 129.841L278.135 132.821L278.661 135.039L291.232 132.06L291.869 134.745C292.026 135.407 291.847 135.696 291.117 135.91C290.456 136.067 288.129 136.659 285.776 137.135C286.322 137.704 287.038 138.644 287.369 139.347C290.599 138.581 292.614 138.063 293.719 137.349C294.785 136.644 295.173 135.853 294.749 134.063L294.113 131.377L303.454 129.163L303.869 130.914L306.749 130.232L305.116 123.343L309.125 122.393L308.581 120.096ZM323.566 110.995L315.392 112.932L313.464 104.798L321.638 102.86L323.566 110.995ZM318.215 124.842L316.001 115.501L324.175 113.564L326.389 122.905L318.215 124.842ZM314.621 95.1095C314.782 97.0034 314.7 99.7772 314.559 101.784L310.2 102.817L316.915 131.152L319.562 130.525L318.833 127.45L329.653 124.885L323.667 99.6252L317.206 101.157C317.471 99.3261 317.664 97.0194 317.873 94.9554L314.621 95.1095ZM342.672 94.9975L331.034 97.7557C331.262 95.7696 331.364 93.7722 331.379 91.7543L328.459 91.7476C328.477 97.3751 327.649 103.244 325.853 107.288C326.568 107.529 327.998 108.012 328.614 108.36C329.543 106.207 330.187 103.547 330.659 100.681L340.545 98.3381C343.71 113.949 344.529 120.003 343.567 121.67C343.298 122.268 342.888 122.448 342.11 122.632C341.214 122.844 338.879 123.398 336.294 123.764C337.032 124.452 337.659 125.537 337.94 126.374C340.148 125.975 342.385 125.527 343.71 125.048C345.006 124.618 345.818 124.055 346.416 122.762C347.521 120.486 346.606 114.372 343.022 96.4765L342.672 94.9975ZM340.673 113.97C338.883 111.969 335.312 108.869 332.478 106.622L330.534 108.48C333.339 110.775 336.86 114.01 338.581 116.069L340.673 113.97ZM351.251 87.6612C352.543 89.1226 353.808 91.1659 354.314 92.608L356.389 91.1296C355.853 89.7356 354.501 87.6719 353.159 86.3457L351.251 87.6612ZM362.644 90.6339L347.308 94.2685L347.88 96.6816L363.216 93.047L362.644 90.6339ZM362.75 109.642L364.291 116.142L357.479 117.756L355.939 111.256L362.75 109.642ZM364.795 106.649L352.807 109.491L355.898 122.529L358.466 121.921L358.042 120.13L367.461 117.898L364.795 106.649ZM352.154 106.562L364.22 103.703L363.667 101.367L351.601 104.227L352.154 106.562ZM350.383 99.0893L350.927 101.386L362.993 98.526L362.449 96.2296L350.383 99.0893ZM385.62 96.863L376.901 98.9294L374.761 89.8996L382.662 88.0269L382.026 85.3413L368.325 88.5885C368.512 86.7765 368.633 84.8569 368.637 82.9651L365.618 83.0639C365.698 88.4301 364.855 93.8918 362.818 97.7865C363.679 97.9523 365.119 98.4745 365.774 98.8124C366.712 96.6991 367.441 94.2243 367.911 91.5232L371.881 90.5822L374.021 99.6121L365.03 101.743L365.685 104.506L374.676 102.376L378.292 117.633L381.172 116.95L377.556 101.693L386.275 99.6265L385.62 96.863ZM419.798 85.1448L410.73 87.2942L409.844 83.5577L418.913 81.4083L419.798 85.1448ZM421.201 91.0609L412.132 93.2103L411.228 89.3959L420.297 87.2465L421.201 91.0609ZM422.621 97.0548L413.552 99.2042L412.639 95.351L421.708 93.2016L422.621 97.0548ZM406.818 81.8906L411.597 102.052L425.725 98.7034L420.947 78.542L414.174 80.1471C414.209 78.9057 414.207 77.5085 414.214 76.1503L421.103 74.5175L420.512 72.0265L404.048 75.9286L404.639 78.4196L411.333 76.8329C411.464 78.0764 411.562 79.5329 411.605 80.7559L406.818 81.8906ZM397.346 101.072C397.468 103.839 397.248 106.727 396.493 108.92C397.181 109.045 398.322 109.35 398.833 109.599C399.521 107.298 399.861 104.052 399.744 100.956L397.346 101.072ZM397.381 92.7189L404.075 91.1322L404.989 94.9855L398.294 96.5722L397.381 92.7189ZM395.997 86.8807L402.692 85.294L403.586 89.0694L396.892 90.6561L395.997 86.8807ZM407.918 96.5932L404.597 82.5813L399.265 83.8451C399.3 82.6037 399.327 81.1584 399.364 79.752L403.84 78.6912L403.231 76.1224L387.117 79.9415L390.494 94.1868C391.758 99.5191 393.233 106.61 392.234 112.109C392.795 112.222 394.108 112.733 394.647 113.099C395.854 107.263 394.361 99.2308 393.024 93.5872L390.256 81.9107L396.562 80.4162C396.692 81.6597 396.761 83.1644 396.813 84.4263L393.154 85.2935L396.475 99.3053L400.913 98.2536L403.412 108.801C403.495 109.152 403.397 109.257 403.047 109.34C402.628 109.481 401.499 109.748 400.089 110.041C400.596 110.62 401.177 111.51 401.441 112.105C403.348 111.653 404.585 111.319 405.358 110.766C406.035 110.153 406.112 109.436 405.835 108.268L403.326 97.6817L407.918 96.5932ZM411.016 104.286C410.258 102.822 408.58 100.424 407.175 98.6603L405.347 99.7924C406.722 101.604 408.37 104.05 409.117 105.641L411.016 104.286ZM415.03 102.143C414.007 104.071 411.666 106.681 409.472 108.352C410.176 108.719 411.226 109.334 411.774 109.738C413.92 108.038 416.398 105.313 417.775 102.972L415.03 102.143ZM420.461 102.335C422.757 103.353 425.648 104.97 427.148 106.095L428.968 104.06C427.429 102.945 424.479 101.424 422.279 100.466L420.461 102.335ZM444.795 88.7985L447.986 88.0421C445.552 82.4529 454.568 79.0416 453.175 73.1644C452.114 68.6884 447.947 66.7163 442.459 68.017C438.217 69.0225 435.605 71.5324 433.682 74.8658L436.245 76.3137C437.862 73.4229 440.115 71.6556 442.762 71.0284C446.732 70.0874 449.139 71.5723 449.776 74.2579C450.827 78.6949 442.057 82.6235 444.795 88.7985ZM444.866 95.6879C445.308 97.5562 447.034 98.4214 448.747 98.0155C450.46 97.6096 451.575 96.071 451.132 94.2027C450.689 92.3345 449.011 91.4989 447.299 91.9048C445.586 92.3107 444.423 93.8197 444.866 95.6879Z" fill="#06102B"/>
<defs>
<filter id="filter0_d_99_9019" x="5.54883" y="3.25537" width="514.578" height="236.2" filterUnits="userSpaceOnUse" color-interpolation-filters="sRGB">
<feFlood flood-opacity="0" result="BackgroundImageFix"/>
<feColorMatrix in="SourceAlpha" type="matrix" values="0 0 0 0 0 0 0 0 0 0 0 0 0 0 0 0 0 0 127 0" result="hardAlpha"/>
<feOffset/>
<feGaussianBlur stdDeviation="5"/>
<feComposite in2="hardAlpha" operator="out"/>
<feColorMatrix type="matrix" values="0 0 0 0 0.333333 0 0 0 0 1 0 0 0 0 0.68 0 0 0 0.6 0"/>
<feBlend mode="normal" in2="BackgroundImageFix" result="effect1_dropShadow_99_9019"/>
<feBlend mode="normal" in="SourceGraphic" in2="effect1_dropShadow_99_9019" result="shape"/>
</filter>
</defs>
</svg>
