<svg width="561" height="244" viewBox="0 0 561 244" fill="none" xmlns="http://www.w3.org/2000/svg">
<g filter="url(#filter0_d_99_9014)">
<path fill-rule="evenodd" clip-rule="evenodd" d="M85.9079 35.0109C41.7759 35.416 7.1672 73.0253 10.4244 117.039C13.246 155.165 43.5901 184.678 80.5668 187.565C78.9432 196.639 75.6425 207.346 72.7971 216.575C71.0902 222.112 69.5472 227.117 68.6283 230.919C66.7981 238.493 77.7488 228.977 93.2139 215.538C104.62 205.625 118.483 193.579 131.484 184.682L491.317 158.052C526.681 155.435 553.034 124.341 549.819 89.0268C546.823 56.129 519.085 31.0346 486.053 31.3379L85.9079 35.0109Z" fill="#9DA4FF"/>
</g>
<path d="M48.0553 123.44L47.8842 120.525L52.9156 120.23L53.0867 123.145L48.0553 123.44ZM47.6006 115.694L52.632 115.398L52.8007 118.273L47.7694 118.569L47.6006 115.694ZM60.5384 114.934L60.7071 117.809L55.4761 118.116L55.3074 115.241L60.5384 114.934ZM60.9931 122.681L55.7621 122.988L55.591 120.073L60.822 119.766L60.9931 122.681ZM70.7825 109.925C70.6983 107.125 70.5248 104.171 70.349 101.176L67.5538 101.34C67.732 104.375 67.9031 107.29 67.9873 110.089L63.2355 110.368L63.3995 113.164L68.0715 112.889C68.1527 120.417 67.4919 126.907 64.2944 131.823L64.2827 131.624C61.6261 132.1 58.9272 132.539 56.3457 132.931L56.1605 129.776L63.987 129.317L63.8534 127.041L56.0269 127.5L55.8839 125.064L63.6306 124.61L62.9345 112.75L55.1878 113.205L55.0402 110.689L63.5056 110.192L63.3697 107.876L54.9042 108.373L54.7331 105.458C57.6294 104.968 60.3236 104.449 62.4518 103.843L60.8407 101.654C56.7817 102.814 49.6362 103.954 43.7452 104.621C44.0998 105.201 44.4355 106.143 44.5928 106.775C46.9441 106.556 49.5303 106.244 52.0741 105.895L52.2288 108.53L43.6037 109.036L43.7396 111.352L52.3648 110.846L52.5124 113.362L45.0453 113.8L45.7414 125.66L53.2086 125.221L53.3515 127.657L45.8045 128.1L45.9381 130.376L53.4851 129.933L53.6867 133.367C50.4311 133.879 47.4526 134.334 45.0685 134.675L45.6601 137.244C50.1043 136.503 56.2538 135.461 62.2811 134.386C61.7502 134.898 61.2193 135.41 60.6062 135.886C61.3531 136.323 62.4499 137.261 62.9266 137.874C69.6451 132.19 70.971 123.377 70.8267 112.728L76.5369 112.392C76.9884 126.911 76.8186 132.21 75.9682 133.422C75.5993 133.964 75.247 134.105 74.5681 134.145C73.8095 134.19 72.0501 134.253 70.1241 134.206C70.6078 134.939 70.9999 136.158 71.1267 136.952C72.9706 136.964 74.8497 136.893 75.9584 136.668C77.1493 136.478 77.9291 136.112 78.547 135.034C79.8063 133.277 79.8398 127.705 79.297 110.948C79.2736 110.549 79.2479 109.428 79.2479 109.428L70.7825 109.925ZM85.5702 135.222L121.189 133.132L121.065 131.015L85.4459 133.106L85.5702 135.222ZM113.284 124.059L104.02 124.603L103.9 122.567L113.164 122.023L113.284 124.059ZM113.506 127.853L104.242 128.397L104.118 126.28L113.382 125.736L113.506 127.853ZM92.4981 126.962L101.363 126.442L101.487 128.558L92.6223 129.079L92.4981 126.962ZM92.2801 123.249L101.145 122.728L101.264 124.765L92.3996 125.285L92.2801 123.249ZM89.3442 121.698L89.8879 130.962L116.602 129.394L116.058 120.13L89.3442 121.698ZM103.066 106.989L112.21 106.452L112.339 108.648L103.195 109.185L103.066 106.989ZM102.836 103.075L111.98 102.539L112.1 104.575L102.956 105.112L102.836 103.075ZM103.654 117.011L103.532 114.935L117.189 114.133L117.079 112.257L103.422 113.058L103.303 111.022L115.402 110.312L115.165 106.278L119.478 106.025L119.367 104.149L115.055 104.402L114.828 100.528L102.728 101.239L102.583 98.7628L99.6281 98.9363L99.7734 101.412L87.9138 102.108L88.0217 103.945L99.8812 103.249L100.001 105.285L83.9484 106.228L84.0586 108.104L100.111 107.162L100.24 109.358L88.1407 110.068L88.2485 111.905L100.348 111.195L100.467 113.232L87.4097 113.998L87.5198 115.875L100.577 115.108L100.699 117.185L84.567 118.132L84.6889 120.208L120.308 118.117L120.186 116.041L103.654 117.011ZM136.83 114.263C135.378 114.789 133.887 115.317 132.473 115.801L132.009 107.894L136.441 107.634L136.277 104.839L131.845 105.099L131.376 97.1128L128.461 97.2839L128.93 105.27L123.818 105.57L123.982 108.365L129.094 108.065L129.605 116.77C127.523 117.494 125.635 118.085 124.059 118.538L125.068 121.404L129.778 119.725L130.39 130.147C130.423 130.706 130.235 130.918 129.636 130.953C129.159 131.021 127.442 131.122 125.523 131.194C125.969 131.97 126.476 133.102 126.641 133.853C129.358 133.734 131.031 133.556 132.001 133.018C133.011 132.478 133.403 131.653 133.305 129.976L132.641 118.676C134.171 118.105 135.78 117.53 137.349 116.957L136.83 114.263ZM154.616 113.499C153.392 117.217 151.336 120.423 148.726 123.061C146.06 120.653 143.879 117.615 142.317 114.221L154.616 113.499ZM156.324 110.514L155.852 110.662L149.503 111.035L149.153 105.085L158.697 104.525L158.535 101.769L148.992 102.33L148.624 96.0604L145.709 96.2315L146.077 102.501L136.733 103.049L136.895 105.804L146.239 105.256L146.588 111.206L138.042 111.707L138.204 114.463L139.522 114.385L139.404 114.432C141.213 118.613 143.624 122.158 146.595 124.989C143.499 127.535 139.884 129.43 136.072 130.695C136.668 131.301 137.46 132.497 137.826 133.277C141.824 131.76 145.589 129.696 148.831 126.901C151.939 129.323 155.605 131.031 159.833 132.065C160.225 131.241 160.996 130.034 161.599 129.397C157.543 128.554 154.008 127.038 150.995 124.851C154.394 121.326 156.974 116.807 158.33 111.238L156.324 110.514ZM196.114 110.543C197.552 110.458 198.984 110.294 199.654 110.094C199.494 109.423 199.309 108.312 199.182 107.518C198.435 107.762 196.84 107.895 195.882 107.952L188.534 108.383C187.257 108.458 186.909 107.998 186.825 106.56L186.56 102.048L197.301 101.417L197.147 98.7818L186.405 99.4123L186.082 93.9018L183.167 94.0729L183.905 106.651C184.102 110.005 185.133 111.187 188.647 110.981L196.114 110.543ZM169.949 115.324C172.183 116.515 175.046 118.19 176.511 119.266L178.013 117.535C176.509 116.502 173.609 114.869 171.42 113.755L169.949 115.324ZM169.409 111.589L177.675 111.104L178.149 119.17C175.048 120.955 171.987 122.737 169.81 123.867C169.946 122.096 169.923 120.334 169.834 118.817L169.409 111.589ZM180.36 108.382L166.504 109.195L167.076 118.938C167.275 122.333 167.282 126.539 165.184 129.708C165.806 130.072 166.905 131.049 167.342 131.665C168.897 129.49 169.534 126.688 169.779 124.029L170.958 126.364C173.119 124.955 175.743 123.238 178.287 121.526L178.648 127.675C178.678 128.195 178.568 128.361 178.009 128.394C177.49 128.425 175.855 128.561 173.934 128.593C174.375 129.289 174.833 130.263 175.037 131.013C177.513 130.867 179.268 130.724 180.24 130.227C181.292 129.724 181.572 129.026 181.483 127.509L180.36 108.382ZM174.804 98.3703C175.715 99.5589 176.634 100.867 177.512 102.178L169.359 103.218C171.194 101.026 172.953 98.2385 174.478 95.5445L171.464 94.7197C169.977 98.0526 167.532 101.442 166.822 102.325C166.073 103.21 165.429 103.849 164.797 104.006C165.199 104.704 165.725 106.156 165.92 106.745C166.812 106.252 168.2 106.01 178.97 104.497C179.548 105.465 180.041 106.357 180.407 107.137L182.895 105.829C181.759 103.532 179.262 99.9117 177.146 97.3112L174.804 98.3703ZM190.282 127.233C188.405 127.343 188.032 127.125 187.954 125.807L187.603 119.817L198.784 119.161L198.627 116.486L187.446 117.142L187.167 112.39L184.252 112.561L185.039 125.978C185.232 129.252 186.284 130.112 190.157 129.885L197.225 129.47C200.539 129.275 201.338 127.866 201.393 122.654C200.582 122.501 199.399 122.13 198.692 121.691C198.743 125.975 198.508 126.75 196.831 126.849L190.282 127.233ZM220.405 101.824L215.533 102.11L215.676 104.546L227.975 103.824L227.832 101.388L223 101.672L222.796 98.1979L228.547 97.8603L228.404 95.4245L222.654 95.762L222.419 91.7689L219.824 91.9213L220.058 95.9144L214.348 96.2496L214.491 98.6854L220.201 98.3502L220.405 101.824ZM225.583 112.9L219.074 113.282L218.804 108.69L225.313 108.308L225.583 112.9ZM227.782 105.999L216.202 106.679L216.727 115.623L228.307 114.944L227.782 105.999ZM221.786 122.619C221.492 121.034 220.537 118.405 219.618 116.415L217.338 117.15C218.218 119.182 219.056 121.858 219.312 123.485L221.786 122.619ZM215.807 112.913C215.184 111.867 212.453 107.66 211.408 106.239L211.263 103.763L214.857 103.552L214.697 100.837L211.103 101.048L210.597 92.4228L208.002 92.5751L208.508 101.2L203.796 101.477L203.955 104.192L208.428 103.93C207.748 109.419 206.004 115.892 204.045 119.373C204.559 119.944 205.301 120.982 205.623 121.684C206.993 119.08 208.196 115.002 209.07 110.784L210.139 128.992L212.735 128.84L211.61 109.673C212.683 111.573 213.904 113.946 214.458 115.196L215.807 112.913ZM226.213 122.96C226.864 121.079 227.562 118.634 228.152 116.395L225.397 115.876C225.082 118.018 224.269 121.231 223.585 123.235L224.236 123.397C220.752 124.122 217.546 124.791 215.169 125.251L216.042 127.845C220.035 126.929 225.574 125.722 230.831 124.492L230.526 122.026L226.213 122.96ZM234.424 116.067C234.041 113.646 232.764 109.633 231.421 106.547L229.22 107.277C230.525 110.406 231.69 114.545 232.077 117.046L234.424 116.067ZM239.837 99.762L237.402 99.905L236.879 91.0003L234.124 91.162L234.646 100.067L228.657 100.418L228.816 103.134L234.806 102.782L236.053 124.025C236.085 124.585 235.895 124.756 235.418 124.824C234.862 124.897 233.224 124.993 231.423 125.018C231.867 125.754 232.343 127.048 232.505 127.76C234.981 127.614 236.614 127.438 237.624 126.898C238.554 126.363 238.904 125.501 238.808 123.864L237.561 102.62L239.997 102.477L239.837 99.762ZM279.357 102.01L279.181 99.0154L262.65 99.9857C262.866 96.1664 262.693 92.5304 262.55 89.4134L259.395 89.5985C259.534 92.6357 259.789 96.307 259.575 100.166L244.201 101.069L244.377 104.063L259.272 103.189C258.298 111.18 254.901 119.513 244.659 124.562C245.533 125.112 246.514 126.136 246.998 126.869C251.548 124.518 254.781 121.564 257.109 118.222C259.92 120.381 263.262 123.39 264.861 125.38L267.262 123.275C265.499 121.215 261.915 118.18 259.028 116.106L257.917 116.972C260.299 113.186 261.54 109.066 262.179 104.942C265.781 114.427 271.335 121.674 279.507 125.041C279.977 124.172 280.862 122.878 281.584 122.194C273.438 119.267 267.762 111.987 264.503 102.882L279.357 102.01ZM314.779 92.4782C314.251 90.9866 312.915 88.701 311.694 87.0096L309.192 88.0781C310.338 89.854 311.637 92.1819 312.167 93.7134L314.779 92.4782ZM300.9 91.5299L294.511 91.9049L294.863 91.764C294.356 90.6318 293.297 88.971 292.376 87.6226L289.75 88.6182C290.41 89.6212 291.171 90.979 291.716 92.0689L283.53 92.5494L283.687 95.2248L301.057 94.2053L300.9 91.5299ZM292.278 102.334C291.628 101.49 290.402 100.4 289.225 99.4676C289.519 98.3284 289.77 97.1517 289.977 95.8974L287.476 95.6035C286.904 99.5237 285.638 103.204 283.542 105.731C284.162 106.056 285.215 106.915 285.6 107.334C286.833 105.819 287.801 103.879 288.555 101.711C289.448 102.58 290.298 103.412 290.819 104.102L292.278 102.334ZM288.368 114.223C287.752 116.704 286.66 119.252 285.166 121.103C285.821 121.345 286.937 121.92 287.479 122.289C288.926 120.321 290.198 117.401 290.914 114.595L288.368 114.223ZM296.751 114.372C298.153 116.414 299.76 119.204 300.466 121.006L302.764 119.869C302.019 118.11 300.38 115.441 298.941 113.442L296.751 114.372ZM294.857 105.989L293.499 106.069C294.507 104.807 295.379 103.274 296.041 101.592C297.363 102.957 298.695 104.481 299.4 105.562L301.15 103.977C300.234 102.708 298.44 100.81 296.873 99.3793C297.204 98.1979 297.491 96.9389 297.736 95.6424L295.194 95.3508C294.644 98.9492 293.323 102.392 291.256 104.718C291.796 105.047 292.632 105.639 293.14 106.09L292.062 106.153L292.226 108.948L284.319 109.412L284.474 112.048L292.38 111.584L293.112 124.042L295.907 123.878L295.176 111.419L302.283 111.002L302.129 108.367L295.021 108.784L294.857 105.989ZM306.932 113.053L312.163 112.746L312.486 118.257L307.255 118.564L306.932 113.053ZM311.541 102.165L306.31 102.472L305.999 97.1608L311.23 96.8537L311.541 102.165ZM312.01 110.151L306.779 110.458L306.46 105.027L311.691 104.72L312.01 110.151ZM320.872 117.765L315.161 118.1L314.838 112.589L319.949 112.289L319.797 109.694L314.686 109.994L314.367 104.563L319.438 104.265L319.288 101.71L314.217 102.008L313.905 96.6967L319.416 96.3733L319.256 93.6579L306.239 94.422C306.988 92.1742 307.651 89.8113 308.114 87.4602L305.363 87.0206C304.28 92.4534 302.283 98.02 299.734 101.696C300.396 102.057 301.57 102.95 302.08 103.441C302.594 102.65 303.027 101.823 303.497 100.954L304.816 123.435L307.532 123.276L307.414 121.279L321.031 120.48L320.872 117.765ZM357.611 91.0861L357.454 88.4107L331.659 89.9248C332.462 88.5954 333.181 87.1909 333.78 85.7934L331.096 85.1095C329.409 89.1353 326.437 93.1162 323.223 95.709C323.855 96.2329 324.844 97.3769 325.196 97.9172C326.833 96.4588 328.412 94.6832 329.819 92.7174L357.611 91.0861ZM328.86 122.104C330.213 119.901 331.576 116.495 332.421 113.841L329.584 113.286C328.738 115.941 327.284 119.151 325.999 121.15L328.86 122.104ZM336.318 114.013C336.938 116.381 337.478 119.435 337.586 121.271L340.475 120.661C340.33 118.866 339.714 115.897 339.059 113.612L336.318 114.013ZM344.539 113.45C345.676 115.748 346.895 118.762 347.364 120.617L350.244 119.847C349.735 117.994 348.478 115.022 347.227 112.812L344.539 113.45ZM352.756 112.808C354.339 115.199 356.33 118.408 357.206 120.36L360.008 118.953C359.015 117.048 356.986 113.882 355.368 111.573L352.756 112.808ZM333.045 101.944L337.198 101.7L337.597 108.489L333.444 108.732L333.045 101.944ZM344.386 101.279L344.784 108.067L340.152 108.339L339.754 101.55L344.386 101.279ZM351.334 100.871L351.732 107.659L347.34 107.917L346.942 101.129L351.334 100.871ZM354.488 107.497L354.089 100.709L358.601 100.444L358.444 97.7687L353.932 98.0336L353.672 93.6012L350.917 93.7629L351.177 98.1953L346.784 98.4531L346.524 94.0208L343.969 94.1708L344.229 98.6031L339.597 98.875L339.337 94.4426L336.781 94.5927L337.041 99.025L332.888 99.2688L332.628 94.8364L329.953 94.9934L330.213 99.4258L325.421 99.7071L325.578 102.382L330.37 102.101L330.768 108.89L324.659 109.248L324.816 111.924L359.956 109.861L359.799 107.186L354.488 107.497ZM386.554 92.6729C385.532 91.651 383.602 90.1615 381.89 88.9798C382.458 87.0632 382.935 84.9516 383.248 82.7696L380.347 82.4991C379.583 88.5943 377.527 93.8438 373.966 97.3385C374.668 97.698 375.85 98.7105 376.319 99.2038C378.281 97.1253 379.848 94.4689 381.032 91.4343C382.624 92.623 384.311 94.0467 385.25 95.0333L386.554 92.6729ZM370.644 83.0686C369.051 85.9669 365.739 89.6073 362.746 91.8665C363.296 92.3552 364.115 93.3489 364.55 93.9244C367.763 91.3316 371.261 87.44 373.418 83.9075L370.644 83.0686ZM372.076 91.0785C369.966 95.4096 366.416 99.7851 362.94 102.674C363.456 103.285 364.457 104.628 364.771 105.211C366.218 103.924 367.649 102.357 369.033 100.673L370.153 119.76L372.908 119.599L371.598 97.2771C372.815 95.4827 373.87 93.6578 374.765 91.8422L372.076 91.0785ZM389.627 106.797L398.492 106.277L398.344 103.761L389.479 104.281L389.086 97.573L387.528 97.6644C389.309 95.917 390.747 93.7891 391.799 91.2431C394.202 93.2658 396.788 95.6784 398.169 97.3604L400.086 95.2043C398.538 93.4119 395.414 90.7103 392.69 88.6665C393.294 86.6676 393.684 84.4409 393.905 82.0639L391.049 81.8709C390.536 88.1518 388.583 93.1147 384.724 96.3064C385.302 96.593 386.22 97.2203 386.849 97.7042L386.33 97.7347L387.31 114.426C384.724 113.376 382.711 111.17 381.265 107.007C381.479 105.192 381.604 103.221 381.599 101.098L378.752 101.064C378.78 108.355 377.699 113.828 373.822 117.421C374.487 117.823 375.744 118.751 376.171 119.207C378.288 117.039 379.655 114.394 380.473 111.261C383.455 117.016 387.692 118.21 393.642 117.861L400.271 117.472C400.306 116.708 400.67 115.405 401.032 114.742L393.645 115.176C392.407 115.249 391.204 115.239 390.115 115.103L389.627 106.797ZM438.712 84.9634L438.539 82.0085L403.279 84.0781L403.453 87.033L418.706 86.1377L420.497 116.645L423.652 116.46L422.419 95.4561C427.114 97.6247 432.657 100.585 435.504 102.662L437.423 99.8645C434.128 97.6538 427.648 94.428 422.762 92.4308L422.278 93.0603L421.861 85.9525L438.712 84.9634ZM479.783 97.2579L463.411 98.2189L463.031 91.75L477.167 90.9203L477.001 88.0852L462.865 88.9149L462.485 82.4461C467.164 81.6104 471.472 80.5963 474.806 79.3588L472.431 77.1341C466.552 79.3625 455.033 81.0804 445.635 82.0728C445.954 82.7352 446.381 83.8721 446.548 84.6637C450.649 84.2227 455.145 83.6783 459.509 82.9413L459.87 89.0907L446.134 89.897L446.3 92.7321L460.037 91.9258L460.416 98.3947L444.005 99.358L444.176 102.273L460.587 101.31L461.105 110.134C461.155 110.973 460.812 111.274 459.933 111.325C459.017 111.419 455.905 111.642 452.544 111.719C453.07 112.489 453.706 113.774 453.995 114.599C458.19 114.393 460.741 114.163 462.19 113.597C463.639 113.031 464.227 112.115 464.103 109.999L463.582 101.134L479.954 100.173L479.783 97.2579ZM499.776 99.2899L503.051 99.0977C501.621 93.1713 511.092 91.3733 510.738 85.3436C510.468 80.7515 506.706 78.0874 501.076 78.4179C496.723 78.6734 493.716 80.693 491.245 83.6429L493.518 85.5129C495.612 82.9459 498.137 81.5956 500.852 81.4362C504.925 81.1971 507.039 83.0765 507.201 85.8318C507.468 90.3839 498.149 92.734 499.776 99.2899ZM498.653 106.087C498.765 108.004 500.315 109.155 502.072 109.052C503.829 108.949 505.194 107.627 505.082 105.71C504.969 103.793 503.461 102.68 501.704 102.783C499.947 102.886 498.54 104.171 498.653 106.087Z" fill="#06102B"/>
<defs>
<filter id="filter0_d_99_9014" x="0.211914" y="21.3352" width="559.872" height="222.267" filterUnits="userSpaceOnUse" color-interpolation-filters="sRGB">
<feFlood flood-opacity="0" result="BackgroundImageFix"/>
<feColorMatrix in="SourceAlpha" type="matrix" values="0 0 0 0 0 0 0 0 0 0 0 0 0 0 0 0 0 0 127 0" result="hardAlpha"/>
<feOffset/>
<feGaussianBlur stdDeviation="5"/>
<feComposite in2="hardAlpha" operator="out"/>
<feColorMatrix type="matrix" values="0 0 0 0 0.615686 0 0 0 0 0.643137 0 0 0 0 1 0 0 0 0.6 0"/>
<feBlend mode="normal" in2="BackgroundImageFix" result="effect1_dropShadow_99_9014"/>
<feBlend mode="normal" in="SourceGraphic" in2="effect1_dropShadow_99_9014" result="shape"/>
</filter>
</defs>
</svg>
