<svg width="261" height="190" viewBox="0 0 261 190" fill="none" xmlns="http://www.w3.org/2000/svg">
<path fill-rule="evenodd" clip-rule="evenodd" d="M237.078 103.803C247.247 83.6088 249.477 62.6519 241.561 44.3293C222.941 1.23562 155.239 -10.9684 90.3455 17.0708C25.4516 45.11 -12.061 102.775 6.55876 145.868C25.1785 188.962 92.8798 201.166 157.774 173.127C183.28 162.106 204.555 146.509 219.856 129.019C234.958 132.122 248.294 134.606 254.903 134.606C265.973 134.606 254.055 120.588 237.078 103.803Z" fill="#151F3F"/>
<path d="M241.561 44.3293L242.479 43.9326L241.561 44.3293ZM237.078 103.803L236.185 103.353L235.858 104.002L236.375 104.514L237.078 103.803ZM90.3455 17.0708L90.7422 17.9888L90.3455 17.0708ZM6.55876 145.868L7.47673 145.472L6.55876 145.868ZM157.774 173.127L158.17 174.045L157.774 173.127ZM219.856 129.019L220.057 128.04L219.487 127.922L219.103 128.361L219.856 129.019ZM240.643 44.7259C248.412 62.708 246.258 83.3486 236.185 103.353L237.971 104.252C248.235 83.869 250.542 62.5958 242.479 43.9326L240.643 44.7259ZM90.7422 17.9888C123.034 4.03625 155.983 0.116066 183.128 5.00935C210.282 9.9042 231.507 23.5832 240.643 44.7259L242.479 43.9326C232.994 21.9817 211.058 8.01185 183.483 3.04107C155.899 -1.93126 122.551 2.06615 89.9489 16.1528L90.7422 17.9888ZM7.47673 145.472C-1.65855 124.329 2.92699 99.4978 17.9727 76.3694C33.0137 53.2484 58.4504 31.9413 90.7422 17.9888L89.9489 16.1528C57.3467 30.2395 31.5802 51.7843 16.2963 75.2788C1.01715 98.7659 -3.84372 124.314 5.64078 146.265L7.47673 145.472ZM157.377 172.209C125.085 186.161 92.1361 190.081 64.9908 185.188C37.8369 180.293 16.612 166.614 7.47673 145.472L5.64078 146.265C15.1253 168.216 37.0609 182.186 64.636 187.156C92.2198 192.129 125.568 188.131 158.17 174.045L157.377 172.209ZM219.103 128.361C203.908 145.73 182.757 161.243 157.377 172.209L158.17 174.045C183.802 162.97 205.203 147.288 220.609 129.678L219.103 128.361ZM254.903 133.606C248.42 133.606 235.203 131.152 220.057 128.04L219.655 129.999C234.713 133.093 248.167 135.606 254.903 135.606V133.606ZM236.375 104.514C244.871 112.914 252.022 120.547 255.675 126.052C256.584 127.421 257.256 128.63 257.678 129.663C258.107 130.711 258.242 131.493 258.181 132.043C258.128 132.531 257.922 132.861 257.501 133.111C257.023 133.395 256.206 133.606 254.903 133.606V135.606C256.367 135.606 257.6 135.378 258.522 134.83C259.502 134.248 260.049 133.352 260.169 132.263C260.283 131.236 260.014 130.092 259.53 128.907C259.04 127.707 258.291 126.377 257.341 124.946C253.558 119.245 246.262 111.476 237.781 103.091L236.375 104.514Z" fill="url(#paint0_linear_99_9035)"/>
<path d="M98.0117 75.4826L86.3841 83.9771L109.436 114.989L120.547 106.872L98.0117 75.4826ZM113.353 120.351L119.677 129.007L130.723 120.937L124.399 112.281L113.353 120.351ZM126.152 54.9246L114.525 63.4191L137.577 94.4313L148.688 86.3142L126.152 54.9246ZM141.494 99.7929L147.817 108.449L158.864 100.379L152.54 91.7231L141.494 99.7929Z" fill="white"/>
<defs>
<linearGradient id="paint0_linear_99_9035" x1="10.7395" y1="14.1003" x2="285.651" y2="83.6923" gradientUnits="userSpaceOnUse">
<stop stop-color="#313A65"/>
<stop offset="1" stop-color="#313A65" stop-opacity="0"/>
</linearGradient>
</defs>
</svg>
