<svg width="61" height="59" viewBox="0 0 61 59" fill="none" xmlns="http://www.w3.org/2000/svg">
<path d="M29.5369 1.80084C29.9363 1.25339 30.7531 1.25339 31.1526 1.80084L36.3945 8.98522C37.1127 9.96957 38.355 10.4217 39.5379 10.1293L48.1715 7.99522C48.8293 7.8326 49.4551 8.35763 49.4091 9.03374L48.8067 17.9068C48.7241 19.1225 49.3851 20.2673 50.4792 20.8037L58.4647 24.7185C59.0732 25.0168 59.215 25.8211 58.7453 26.3096L52.5803 32.7194C51.7356 33.5977 51.5061 34.8996 51.9994 36.0137L55.6003 44.1456C55.8747 44.7652 55.4663 45.4726 54.7925 45.5448L45.9496 46.4923C44.7381 46.6221 43.7254 47.4718 43.3871 48.6424L40.9185 57.1864C40.7304 57.8375 39.9629 58.1168 39.4003 57.739L32.0173 52.7807C31.0057 52.1014 29.6837 52.1014 28.6722 52.7807L21.2891 57.739C20.7266 58.1168 19.959 57.8375 19.7709 57.1864L17.3023 48.6424C16.9641 47.4718 15.9514 46.6221 14.7398 46.4923L5.89697 45.5448C5.22316 45.4726 4.81476 44.7652 5.08915 44.1456L8.69003 36.0137C9.1834 34.8996 8.95384 33.5977 8.10916 32.7194L1.94418 26.3096C1.47441 25.8212 1.61624 25.0168 2.22473 24.7185L10.2102 20.8037C11.3043 20.2673 11.9653 19.1225 11.8828 17.9068L11.2803 9.03374C11.2344 8.35763 11.8601 7.8326 12.518 7.99522L21.1516 10.1293C22.3345 10.4217 23.5767 9.96957 24.295 8.98522L29.5369 1.80084Z" stroke="white" stroke-width="2"/>
</svg>
