<svg width="283" height="36" viewBox="0 0 283 36" fill="none" xmlns="http://www.w3.org/2000/svg">
<path d="M41.0688 1.39682H43.0688V-0.603176H41.0688V1.39682ZM16.4928 1.39682V-0.603176H14.4928V1.39682H16.4928ZM16.4928 8.64482H14.4928V10.6448H16.4928V8.64482ZM32.4288 8.64482H34.4288V6.64482H32.4288V8.64482ZM9.38881 18.1488H11.3888V16.1488H9.38881V18.1488ZM0.748815 18.1488V16.1488H-1.25119V18.1488H0.748815ZM41.0688 -0.603176H16.4928V3.39682H41.0688V-0.603176ZM14.4928 1.39682V8.64482H18.4928V1.39682H14.4928ZM16.4928 10.6448H32.4288V6.64482H16.4928V10.6448ZM30.4288 8.64482V18.1488H34.4288V8.64482H30.4288ZM30.4288 18.1488C30.4288 20.3636 30.1014 22.2814 28.9613 23.6606C27.8815 24.9668 25.6911 26.2288 20.9088 26.2288V30.2288C26.3506 30.2288 29.9201 28.7788 32.0443 26.2091C34.1083 23.7123 34.4288 20.59 34.4288 18.1488H30.4288ZM20.9088 26.2288C16.1209 26.2288 13.9319 24.9757 12.8544 23.6762C11.7175 22.3051 11.3888 20.391 11.3888 18.1488H7.38881C7.38881 20.6107 7.70816 23.7365 9.77524 26.2294C11.9017 28.794 15.4728 30.2288 20.9088 30.2288V26.2288ZM9.38881 16.1488H0.748815V20.1488H9.38881V16.1488ZM-1.25119 18.1488C-1.25119 24.3582 0.438321 29.3419 4.33558 32.7167C8.17169 36.0386 13.7825 37.4768 20.9088 37.4768V33.4768C14.2112 33.4768 9.74194 32.1071 6.95405 29.6929C4.22731 27.3317 2.74881 23.6515 2.74881 18.1488H-1.25119ZM20.9088 37.4768C28.0166 37.4768 33.6247 36.0243 37.4643 32.6986C41.3638 29.3209 43.0688 24.3406 43.0688 18.1488H39.0688C39.0688 23.6211 37.5819 27.3048 34.8454 29.6751C32.049 32.0973 27.5771 33.4768 20.9088 33.4768V37.4768ZM43.0688 18.1488V1.39682H39.0688V18.1488H43.0688ZM68.8694 37.4768C76.4678 37.4768 82.3038 35.8879 86.2553 32.5088C90.2689 29.0766 91.9894 24.1033 91.9894 18.1488H87.9894C87.9894 23.3303 86.518 27.021 83.6556 29.4688C80.7311 31.9697 76.0071 33.4768 68.8694 33.4768V37.4768ZM91.9894 18.1488C91.9894 12.2155 90.267 7.26442 86.2507 3.85088C82.2991 0.492384 76.4647 -1.08318 68.8694 -1.08318V2.91682C76.0102 2.91682 80.7358 4.41327 83.6602 6.89877C86.5199 9.32923 87.9894 12.9942 87.9894 18.1488H91.9894ZM68.8694 -1.08318C61.2553 -1.08318 55.4184 0.478266 51.4705 3.83268C47.4562 7.24341 45.7494 12.1979 45.7494 18.1488H49.7494C49.7494 12.9638 51.2107 9.30224 54.0604 6.88097C56.9764 4.40338 61.6996 2.91682 68.8694 2.91682V-1.08318ZM45.7494 18.1488C45.7494 24.1209 47.4543 29.0976 51.4658 32.527C55.4137 35.9021 61.2522 37.4768 68.8694 37.4768V33.4768C61.7027 33.4768 56.9811 31.9796 54.0651 29.4866C51.2125 27.048 49.7494 23.3607 49.7494 18.1488H45.7494ZM68.8694 26.2288C64.5369 26.2288 61.9964 25.4483 60.5397 24.241C59.1763 23.1109 58.3894 21.284 58.3894 18.1488H54.3894C54.3894 21.9257 55.3546 25.1387 57.9872 27.3207C60.5265 29.4253 64.2259 30.2288 68.8694 30.2288V26.2288ZM58.3894 18.1488C58.3894 15.0345 59.1658 13.2377 60.5157 12.1276C61.9647 10.9362 64.5049 10.1648 68.8694 10.1648V6.16483C64.21 6.16483 60.5102 6.95348 57.9752 9.03802C55.3411 11.204 54.3894 14.3992 54.3894 18.1488H58.3894ZM68.8694 10.1648C73.228 10.1648 75.7697 10.946 77.2204 12.1433C78.5751 13.2614 79.3494 15.0624 79.3494 18.1488H83.3494C83.3494 14.4192 82.3958 11.2282 79.7665 9.05831C77.2332 6.96761 73.5349 6.16483 68.8694 6.16483V10.1648ZM79.3494 18.1488C79.3494 21.2561 78.5646 23.0872 77.1964 24.2253C75.7379 25.4385 73.196 26.2288 68.8694 26.2288V30.2288C73.5189 30.2288 77.217 29.4112 79.7544 27.3004C82.3823 25.1145 83.3494 21.9056 83.3494 18.1488H79.3494ZM105.616 1.39682H107.616V-0.603176H105.616V1.39682ZM96.9757 1.39682V-0.603176H94.9757V1.39682H96.9757ZM96.9757 34.9968H94.9757V36.9968H96.9757V34.9968ZM105.616 34.9968V36.9968H107.616V34.9968H105.616ZM105.616 -0.603176H96.9757V3.39682H105.616V-0.603176ZM94.9757 1.39682V34.9968H98.9757V1.39682H94.9757ZM96.9757 36.9968H105.616V32.9968H96.9757V36.9968ZM107.616 34.9968V1.39682H103.616V34.9968H107.616ZM147.94 1.39682V-0.603176H145.94V1.39682H147.94ZM147.94 26.6448L146.46 27.9899L149.94 31.8195V26.6448H147.94ZM124.996 1.39682L126.477 0.0517588L125.881 -0.603176H124.996V1.39682ZM113.284 1.39682V-0.603176H111.284V1.39682H113.284ZM113.284 34.9968H111.284V36.9968H113.284V34.9968ZM121.924 34.9968V36.9968H123.924V34.9968H121.924ZM121.924 9.79683L123.405 8.4519L119.924 4.62142V9.79683H121.924ZM144.82 34.9968L143.34 36.3418L143.935 36.9968H144.82V34.9968ZM156.58 34.9968V36.9968H158.58V34.9968H156.58ZM156.58 1.39682H158.58V-0.603176H156.58V1.39682ZM145.94 1.39682V26.6448H149.94V1.39682H145.94ZM149.421 25.2998L126.477 0.0517588L123.516 2.74189L146.46 27.9899L149.421 25.2998ZM124.996 -0.603176H113.284V3.39682H124.996V-0.603176ZM111.284 1.39682V34.9968H115.284V1.39682H111.284ZM113.284 36.9968H121.924V32.9968H113.284V36.9968ZM123.924 34.9968V9.79683H119.924V34.9968H123.924ZM120.444 11.1417L143.34 36.3418L146.301 33.6519L123.405 8.4519L120.444 11.1417ZM144.82 36.9968H156.58V32.9968H144.82V36.9968ZM158.58 34.9968V1.39682H154.58V34.9968H158.58ZM156.58 -0.603176H147.94V3.39682H156.58V-0.603176ZM232.579 1.39682H234.579V-0.603176H232.579V1.39682ZM223.939 1.39682V-0.603176H221.939V1.39682H223.939ZM198.979 1.39682H200.979V-0.603176H198.979V1.39682ZM190.339 1.39682V-0.603176H188.339V1.39682H190.339ZM234.579 18.1488V1.39682H230.579V18.1488H234.579ZM232.579 -0.603176H223.939V3.39682H232.579V-0.603176ZM221.939 1.39682V18.1488H225.939V1.39682H221.939ZM221.939 18.1488C221.939 20.3598 221.612 22.2404 220.398 23.6064C219.216 24.9376 216.775 26.2288 211.459 26.2288V30.2288C217.328 30.2288 221.127 28.8081 223.389 26.2633C225.619 23.7533 225.939 20.5938 225.939 18.1488H221.939ZM211.459 26.2288C206.139 26.2288 203.699 24.9469 202.518 23.6221C201.308 22.2641 200.979 20.3873 200.979 18.1488H196.979C196.979 20.6144 197.299 23.7776 199.532 26.2836C201.796 28.8227 205.596 30.2288 211.459 30.2288V26.2288ZM200.979 18.1488V1.39682H196.979V18.1488H200.979ZM198.979 -0.603176H190.339V3.39682H198.979V-0.603176ZM188.339 1.39682V18.1488H192.339V1.39682H188.339ZM188.339 18.1488C188.339 24.3606 190.031 29.3621 194.073 32.7395C198.034 36.0494 203.88 37.4768 211.459 37.4768V33.4768C204.255 33.4768 199.541 32.0962 196.638 29.6701C193.815 27.3116 192.339 23.649 192.339 18.1488H188.339ZM211.459 37.4768C219.02 37.4768 224.864 36.0354 228.828 32.7213C232.872 29.3409 234.579 24.3431 234.579 18.1488H230.579C230.579 23.6186 229.095 27.2847 226.263 29.6524C223.351 32.0862 218.635 33.4768 211.459 33.4768V37.4768ZM239.543 23.4288V21.4288H237.543V23.4288H239.543ZM260.999 14.7408L260.882 16.7374L260.891 16.7379L260.999 14.7408ZM272.375 12.3888H270.375V14.3888H272.375V12.3888ZM281.015 12.3888V14.3888H283.015V12.3888H281.015ZM260.999 21.1728L261.096 19.1752L261.091 19.1749L260.999 21.1728ZM248.183 23.4288H250.183V21.4288H248.183V23.4288ZM237.543 23.4288C237.543 26.1384 238.119 28.4898 239.342 30.4578C240.568 32.4294 242.35 33.8646 244.508 34.894C248.723 36.9041 254.621 37.4768 261.527 37.4768V33.4768C254.658 33.4768 249.564 32.8736 246.23 31.2836C244.615 30.5131 243.483 29.5422 242.739 28.3459C241.993 27.1458 241.543 25.5672 241.543 23.4288H237.543ZM261.527 37.4768C267.751 37.4768 273.352 37.0354 277.442 35.2808C279.532 34.3842 281.322 33.1063 282.579 31.2883C283.842 29.4609 284.455 27.2477 284.455 24.6768H280.455C280.455 26.594 280.007 27.9747 279.288 29.0138C278.563 30.0623 277.453 30.9235 275.865 31.6048C272.598 33.0063 267.736 33.4768 261.527 33.4768V37.4768ZM284.455 24.6768C284.455 22.2182 283.855 20.1223 282.553 18.4243C281.267 16.7477 279.448 15.6567 277.371 14.9106C273.327 13.4579 267.628 13.0982 261.108 12.7438L260.891 16.7379C267.618 17.1035 272.647 17.4637 276.019 18.6751C277.65 19.2609 278.711 19.988 279.379 20.8583C280.03 21.7073 280.455 22.8875 280.455 24.6768H284.455ZM261.117 12.7443C256.137 12.4514 253.451 12.1912 251.995 11.7564C251.301 11.5492 251.185 11.3823 251.208 11.4098C251.266 11.4809 251.191 11.486 251.191 11.0928H247.191C247.191 11.9957 247.368 13.0327 248.111 13.9409C248.817 14.8054 249.817 15.2804 250.851 15.5892C252.851 16.1865 256.069 16.4543 260.882 16.7374L261.117 12.7443ZM251.191 11.0928C251.191 10.9116 251.21 10.8111 251.223 10.7635C251.229 10.741 251.234 10.7304 251.235 10.7278C251.236 10.7257 251.236 10.7256 251.237 10.725C251.237 10.7243 251.243 10.717 251.258 10.7035C251.273 10.6895 251.302 10.6666 251.349 10.6368C251.445 10.5755 251.612 10.491 251.887 10.4004C253.103 9.99983 255.415 9.78082 259.703 9.78082V5.78082C255.496 5.78082 252.552 5.96982 250.635 6.60129C249.629 6.93302 248.695 7.45122 248.041 8.31964C247.374 9.20641 247.191 10.2009 247.191 11.0928H251.191ZM259.703 9.78082C264.218 9.78082 267.072 10.0228 268.766 10.594C269.573 10.8662 269.932 11.1554 270.099 11.363C270.241 11.5394 270.375 11.8165 270.375 12.3888H274.375C274.375 11.1132 274.048 9.89023 273.216 8.85619C272.409 7.85321 271.283 7.22147 270.044 6.80369C267.646 5.99489 264.164 5.78082 259.703 5.78082V9.78082ZM272.375 14.3888H281.015V10.3888H272.375V14.3888ZM283.015 12.3888C283.015 9.9934 282.457 7.85858 281.312 6.03097C280.17 4.20891 278.519 2.81167 276.517 1.76603C272.578 -0.290987 267.096 -1.08318 260.663 -1.08318V2.91682C266.902 2.91682 271.596 3.70863 274.665 5.31161C276.167 6.09598 277.228 7.04774 277.923 8.15518C278.613 9.25707 279.015 10.6322 279.015 12.3888H283.015ZM260.663 -1.08318C254.326 -1.08318 248.946 -0.502593 245.09 1.18451C243.128 2.0429 241.466 3.2277 240.3 4.85479C239.121 6.49971 238.551 8.45423 238.551 10.6608H242.551C242.551 9.17142 242.924 8.05993 243.551 7.18486C244.191 6.29195 245.199 5.50275 246.693 4.84914C249.749 3.51224 254.424 2.91682 260.663 2.91682V-1.08318ZM238.551 10.6608C238.551 12.8004 238.964 14.7404 239.973 16.4185C240.987 18.1054 242.501 19.3572 244.408 20.2881C248.103 22.0919 253.6 22.8353 260.907 23.1707L261.091 19.1749C253.758 18.8383 249.031 18.0938 246.162 16.6935C244.788 16.0225 243.934 15.2433 243.402 14.3576C242.864 13.4633 242.551 12.2892 242.551 10.6608H238.551ZM260.902 23.1705C266.44 23.4388 269.371 23.69 270.936 24.1437C271.68 24.3594 271.796 24.5381 271.774 24.5095C271.728 24.451 271.815 24.4785 271.815 24.9648H275.815C275.815 24.0592 275.663 22.9827 274.916 22.0347C274.193 21.1165 273.148 20.6202 272.05 20.3019C269.931 19.6876 266.454 19.4348 261.096 19.1752L260.902 23.1705ZM271.815 24.9648C271.815 25.2517 271.753 25.3169 271.726 25.3488C271.659 25.4273 271.418 25.6451 270.703 25.8741C269.217 26.3499 266.554 26.6128 262.007 26.6128V30.6128C266.532 30.6128 269.773 30.3718 271.923 29.6836C273.026 29.3305 274.037 28.8013 274.766 27.9483C275.535 27.0488 275.815 25.9979 275.815 24.9648H271.815ZM262.007 26.6128C256.537 26.6128 253.436 26.1905 251.747 25.5011C250.954 25.1777 250.62 24.8527 250.461 24.6174C250.305 24.3869 250.183 24.0443 250.183 23.4288H246.183C246.183 24.5894 246.421 25.7827 247.147 26.8573C247.87 27.9269 248.94 28.6759 250.236 29.2046C252.722 30.2192 256.534 30.6128 262.007 30.6128V26.6128ZM248.183 21.4288H239.543V25.4288H248.183V21.4288Z" fill="url(#paint0_linear_99_6832)"/>
<defs>
<linearGradient id="paint0_linear_99_6832" x1="141.685" y1="-8.00317" x2="141.685" y2="49.9968" gradientUnits="userSpaceOnUse">
<stop stop-color="#9FA6FF"/>
<stop offset="1" stop-color="#55FFAD"/>
</linearGradient>
</defs>
</svg>
