<svg width="26" height="26" viewBox="0 0 26 26" fill="none" xmlns="http://www.w3.org/2000/svg">
<path d="M11.9352 1.106C12.2095 0.364713 13.258 0.364713 13.5323 1.106L16.3923 8.83525C16.4786 9.06831 16.6623 9.25206 16.8954 9.3383L24.6246 12.1984C25.3659 12.4727 25.3659 13.5211 24.6246 13.7954L16.8954 16.6555C16.6623 16.7418 16.4786 16.9255 16.3923 17.1586L13.5323 24.8878C13.258 25.6291 12.2095 25.6291 11.9352 24.8878L9.07511 17.1586C8.98887 16.9255 8.80512 16.7418 8.57207 16.6555L0.842817 13.7954C0.101529 13.5211 0.10153 12.4727 0.842817 12.1984L8.57207 9.3383C8.80512 9.25206 8.98888 9.06831 9.07511 8.83525L11.9352 1.106Z" fill="url(#paint0_linear_99_6833)"/>
<defs>
<linearGradient id="paint0_linear_99_6833" x1="12.7337" y1="-1.052" x2="12.7337" y2="27.0458" gradientUnits="userSpaceOnUse">
<stop stop-color="#9FA6FF"/>
<stop offset="1" stop-color="#55FFAD"/>
</linearGradient>
</defs>
</svg>
